<svg viewBox="0 0 18 18" fill="none" xmlns="http://www.w3.org/2000/svg">
    <path fill-rule="evenodd" clip-rule="evenodd" d="M14 2.33334C13.0795 2.33334 12.3333 3.07953 12.3333 4.00001C12.3333 4.26949 12.3967 4.52178 12.5085 4.74503C12.7831 5.29325 13.3487 5.66667 14 5.66667C14.9205 5.66667 15.6667 4.92048 15.6667 4.00001C15.6667 3.07953 14.9205 2.33334 14 2.33334ZM10.6667 4.00001C10.6667 2.15906 12.159 0.666672 14 0.666672C15.8409 0.666672 17.3333 2.15906 17.3333 4.00001C17.3333 5.84095 15.8409 7.33334 14 7.33334C12.9959 7.33334 12.0965 6.88934 11.486 6.1887L7.2599 8.30175C7.30803 8.52725 7.33332 8.76091 7.33332 9.00001C7.33332 9.2391 7.30803 9.47276 7.2599 9.69826L11.486 11.8113C12.0965 11.1107 12.9959 10.6667 14 10.6667C15.8409 10.6667 17.3333 12.1591 17.3333 14C17.3333 15.841 15.8409 17.3333 14 17.3333C12.159 17.3333 10.6667 15.841 10.6667 14C10.6667 13.7609 10.692 13.5273 10.7401 13.3017L6.51399 11.1887C5.90349 11.8893 5.00404 12.3333 3.99999 12.3333C2.15904 12.3333 0.666656 10.841 0.666656 9.00001C0.666656 7.15906 2.15904 5.66667 3.99999 5.66667C5.00404 5.66667 5.90349 6.11067 6.51399 6.81131L10.7401 4.69826C10.692 4.47276 10.6667 4.2391 10.6667 4.00001ZM3.99999 7.33334C3.07952 7.33334 2.33332 8.07953 2.33332 9.00001C2.33332 9.92048 3.07952 10.6667 3.99999 10.6667C4.65127 10.6667 5.21683 10.2933 5.49148 9.74503C5.60332 9.52178 5.66666 9.26949 5.66666 9.00001C5.66666 8.73052 5.60332 8.47823 5.49148 8.25499C5.21683 7.70676 4.65127 7.33334 3.99999 7.33334ZM14 12.3333C13.3487 12.3333 12.7831 12.7068 12.5085 13.255C12.3967 13.4782 12.3333 13.7305 12.3333 14C12.3333 14.9205 13.0795 15.6667 14 15.6667C14.9205 15.6667 15.6667 14.9205 15.6667 14C15.6667 13.0795 14.9205 12.3333 14 12.3333Z" fill="currentColor"/>
</svg>
